<svg xmlns="http://www.w3.org/2000/svg" xmlns:xlink="http://www.w3.org/1999/xlink" width="300" zoomAndPan="magnify" viewBox="0 0 224.87999 233.04" height="300" preserveAspectRatio="xMidYMid meet" version="1.0"><defs><clipPath id="95cacd7941"><path d="M 23 39.84375 L 202 39.84375 L 202 184 L 23 184 Z M 23 39.84375 " clip-rule="nonzero"/></clipPath></defs><g clip-path="url(#95cacd7941)"><path fill="#000000" d="M 25.011719 46.609375 C 35.832031 56.054688 46.65625 65.496094 57.480469 74.9375 C 66.566406 82.859375 75.636719 90.792969 84.746094 98.683594 C 85.691406 99.503906 86.128906 100.355469 86.226562 101.613281 C 86.570312 106.101562 87.066406 110.570312 87.472656 115.054688 C 88.472656 126.074219 89.460938 137.097656 90.441406 148.117188 C 91.230469 157.019531 92.007812 165.925781 92.792969 174.832031 C 92.988281 177.011719 93.203125 179.1875 93.425781 181.367188 C 93.542969 182.519531 94.175781 183.269531 95.28125 183.609375 C 96.394531 183.949219 97.320312 183.605469 98.078125 182.769531 C 98.40625 182.40625 98.675781 182 98.964844 181.609375 C 104.1875 174.574219 109.417969 167.546875 114.640625 160.511719 C 132.777344 136.085938 150.910156 111.664062 169.046875 87.234375 C 179.351562 73.363281 189.648438 59.492188 199.945312 45.613281 C 200.417969 44.984375 200.925781 44.359375 201.289062 43.667969 C 202.097656 42.117188 201.242188 40.371094 199.53125 39.992188 C 199.070312 39.890625 198.566406 39.914062 198.082031 39.921875 C 184.679688 40.03125 171.285156 40.148438 157.878906 40.261719 C 142.773438 40.382812 127.671875 40.496094 112.5625 40.613281 C 112.5625 40.617188 112.5625 40.625 112.5625 40.628906 C 99.222656 40.757812 85.886719 40.894531 72.542969 41.015625 C 57.320312 41.160156 42.089844 41.285156 26.863281 41.425781 C 26.4375 41.429688 26 41.410156 25.585938 41.484375 C 23.660156 41.847656 22.808594 44.003906 23.972656 45.589844 C 24.257812 45.972656 24.640625 46.289062 25.011719 46.609375 Z M 189.433594 50.617188 C 189.453125 50.667969 189.453125 50.75 189.429688 50.789062 C 189.304688 51 189.183594 51.207031 189.039062 51.402344 C 158.832031 92.09375 128.625 132.777344 98.414062 173.46875 C 98.273438 173.449219 98.128906 173.421875 97.984375 173.402344 C 95.796875 149.023438 93.601562 124.652344 91.394531 100.117188 C 124.066406 83.519531 156.660156 66.953125 189.246094 50.398438 C 189.359375 50.523438 189.417969 50.558594 189.433594 50.617188 Z M 33.699219 46.578125 C 84.714844 46.140625 135.730469 45.703125 187.085938 45.257812 C 186.558594 45.675781 186.292969 45.96875 185.96875 46.128906 C 167.519531 55.503906 149.070312 64.871094 130.617188 74.238281 C 117.320312 80.988281 104.03125 87.75 90.742188 94.507812 C 88.699219 95.546875 88.988281 95.402344 87.453125 94.054688 C 71.539062 80.171875 55.632812 66.292969 39.722656 52.410156 C 38.03125 50.933594 36.335938 49.449219 34.625 47.984375 C 34.261719 47.675781 33.84375 47.429688 33.445312 47.15625 C 33.53125 46.964844 33.617188 46.773438 33.699219 46.578125 Z M 33.699219 46.578125 " fill-opacity="1" fill-rule="nonzero"/></g></svg>