<svg xmlns="http://www.w3.org/2000/svg" xmlns:xlink="http://www.w3.org/1999/xlink" width="300" zoomAndPan="magnify" viewBox="0 0 224.87999 233.04" height="300" preserveAspectRatio="xMidYMid meet" version="1.0"><defs><clipPath id="97aa3ced56"><path d="M 22 34 L 204 34 L 204 192.796875 L 22 192.796875 Z M 22 34 " clip-rule="nonzero"/></clipPath></defs><g clip-path="url(#97aa3ced56)"><path fill="#000000" d="M 112.535156 192.757812 C 111.320312 192.75 110.53125 192.066406 110.351562 191.902344 L 40.179688 121.773438 C 23.476562 106.667969 17.734375 83.644531 25.515625 64.53125 C 34.589844 42.257812 57.488281 36.445312 59.03125 36.085938 C 78.710938 31.496094 99.738281 40.046875 112.558594 57.488281 C 125.375 40.042969 146.410156 31.496094 166.082031 36.085938 C 167.070312 36.316406 190.421875 41.992188 199.597656 64.53125 C 207.441406 83.796875 201.546875 106.789062 184.9375 121.773438 L 114.761719 191.902344 C 114.585938 192.0625 113.777344 192.765625 112.535156 192.757812 Z M 60.277344 41.417969 C 58.980469 41.722656 38.640625 46.835938 30.59375 66.597656 C 23.609375 83.75 28.957031 104.308594 43.898438 117.75 L 44.003906 117.847656 L 112.558594 186.359375 L 181.160156 117.796875 L 181.214844 117.75 C 196.15625 104.308594 201.503906 83.75 194.519531 66.597656 C 186.402344 46.652344 165.714844 41.625 164.835938 41.417969 C 146.191406 37.070312 126.113281 46.070312 114.871094 63.808594 L 112.558594 67.460938 L 110.242188 63.808594 C 99.003906 45.960938 78.757812 37.097656 60.277344 41.417969 Z M 60.277344 41.417969 " fill-opacity="1" fill-rule="nonzero"/></g></svg>