<svg xmlns="http://www.w3.org/2000/svg" xmlns:xlink="http://www.w3.org/1999/xlink" width="300" zoomAndPan="magnify" viewBox="0 0 224.87999 233.04" height="300" preserveAspectRatio="xMidYMid meet" version="1.0"><defs><clipPath id="f584c34663"><path d="M 23 23.222656 L 202 23.222656 L 202 200.988281 L 23 200.988281 Z M 23 23.222656 " clip-rule="nonzero"/></clipPath></defs><g clip-path="url(#f584c34663)"><path fill="#000000" d="M 156.453125 23.222656 L 68.421875 23.222656 C 43.40625 23.222656 23.054688 43.589844 23.054688 68.621094 L 23.054688 155.597656 C 23.054688 180.632812 43.40625 201 68.421875 201 L 156.453125 201 C 181.46875 201 201.820312 180.632812 201.820312 155.597656 L 201.820312 68.621094 C 201.820312 43.589844 181.46875 23.222656 156.453125 23.222656 Z M 196.308594 68.621094 L 196.308594 74.839844 C 183.753906 74.839844 171.195312 74.835938 158.636719 74.835938 C 153.496094 66.296875 148.082031 57.699219 142.835938 49.375 C 138.582031 42.628906 134.207031 35.683594 129.957031 28.738281 L 156.453125 28.738281 C 178.429688 28.738281 196.308594 46.628906 196.308594 68.621094 Z M 101.988281 74.835938 L 98.617188 69.4375 C 90.320312 56.152344 81.765625 42.445312 73.460938 28.738281 L 123.503906 28.738281 C 128.316406 36.671875 133.324219 44.625 138.171875 52.316406 C 142.820312 59.691406 147.597656 67.28125 152.191406 74.835938 C 135.464844 74.835938 118.730469 74.835938 101.988281 74.835938 Z M 67.03125 28.765625 C 75.886719 43.449219 85.066406 58.144531 93.945312 72.363281 L 95.488281 74.835938 C 73.203125 74.835938 50.898438 74.835938 28.570312 74.839844 L 28.570312 68.621094 C 28.570312 47.097656 45.699219 29.5 67.03125 28.765625 Z M 156.453125 195.484375 L 68.421875 195.484375 C 46.445312 195.484375 28.570312 177.589844 28.570312 155.597656 L 28.570312 80.355469 C 84.597656 80.347656 140.46875 80.347656 196.308594 80.355469 L 196.308594 155.597656 C 196.308594 177.589844 178.429688 195.484375 156.453125 195.484375 Z M 96.226562 168.203125 C 94.765625 168.203125 93.304688 167.820312 91.972656 167.050781 C 89.171875 165.4375 87.503906 162.5 87.503906 159.195312 L 87.503906 111.667969 C 87.503906 108.367188 89.167969 105.429688 91.960938 103.816406 C 94.625 102.273438 97.8125 102.269531 100.484375 103.808594 L 141.628906 127.503906 C 144.425781 129.113281 146.097656 132.046875 146.101562 135.351562 C 146.105469 138.652344 144.441406 141.59375 141.648438 143.210938 L 100.503906 167.042969 C 99.164062 167.816406 97.695312 168.203125 96.226562 168.203125 Z M 96.226562 108.175781 C 95.714844 108.175781 95.199219 108.3125 94.71875 108.589844 C 93.652344 109.207031 93.015625 110.359375 93.015625 111.667969 L 93.015625 159.195312 C 93.015625 160.503906 93.652344 161.65625 94.722656 162.273438 C 95.683594 162.824219 96.78125 162.824219 97.742188 162.269531 L 138.886719 138.433594 C 139.957031 137.816406 140.589844 136.664062 140.589844 135.355469 C 140.589844 134.046875 139.949219 132.898438 138.882812 132.285156 L 97.734375 108.589844 C 97.253906 108.3125 96.742188 108.175781 96.226562 108.175781 Z M 96.226562 108.175781 " fill-opacity="1" fill-rule="nonzero"/></g></svg>