<svg xmlns="http://www.w3.org/2000/svg" xmlns:xlink="http://www.w3.org/1999/xlink" width="300" zoomAndPan="magnify" viewBox="0 0 224.87999 233.04" height="300" preserveAspectRatio="xMidYMid meet" version="1.0"><defs><clipPath id="f9581b8760"><path d="M 22.808594 26 L 202 26 L 202 197.785156 L 22.808594 197.785156 Z M 22.808594 26 " clip-rule="nonzero"/></clipPath></defs><g clip-path="url(#f9581b8760)"><path fill="#000000" d="M 201.023438 192.792969 L 156.164062 148.011719 C 166.59375 135.144531 172.855469 118.773438 172.855469 100.96875 C 172.855469 59.671875 139.199219 26.074219 97.832031 26.074219 C 56.464844 26.074219 22.808594 59.671875 22.808594 100.96875 C 22.808594 142.269531 56.464844 175.867188 97.832031 175.867188 C 119.40625 175.867188 138.875 166.726562 152.574219 152.125 L 197.167969 196.644531 C 198.222656 197.699219 199.964844 197.699219 201.023438 196.644531 C 202.078125 195.585938 202.078125 193.851562 201.023438 192.792969 Z M 97.832031 170.425781 C 59.46875 170.425781 28.261719 139.265625 28.261719 100.96875 C 28.261719 62.671875 59.46875 31.515625 97.832031 31.515625 C 136.195312 31.515625 167.402344 62.671875 167.402344 100.96875 C 167.402344 139.265625 136.195312 170.425781 97.832031 170.425781 Z M 97.832031 170.425781 " fill-opacity="1" fill-rule="nonzero"/></g></svg>