<svg xmlns="http://www.w3.org/2000/svg" xmlns:xlink="http://www.w3.org/1999/xlink" width="300" zoomAndPan="magnify" viewBox="0 0 224.87999 233.04" height="300" preserveAspectRatio="xMidYMid meet" version="1.0"><defs><clipPath id="3d3e175ad5"><path d="M 23 22 L 202 22 L 202 202 L 23 202 Z M 23 22 " clip-rule="nonzero"/></clipPath><clipPath id="44ecd1e03a"><path d="M 112.4375 18.445312 L 205.921875 111.929688 L 112.4375 205.414062 L 18.953125 111.929688 Z M 112.4375 18.445312 " clip-rule="nonzero"/></clipPath><clipPath id="d70834a1ea"><path d="M 112.4375 18.445312 L 205.921875 111.929688 L 112.4375 205.414062 L 18.953125 111.929688 Z M 112.4375 18.445312 " clip-rule="nonzero"/></clipPath><clipPath id="a47ea1f0a5"><path d="M 112.4375 18.445312 L 205.921875 111.929688 L 112.4375 205.414062 L 18.953125 111.929688 Z M 112.4375 18.445312 " clip-rule="nonzero"/></clipPath></defs><g clip-path="url(#3d3e175ad5)"><g clip-path="url(#44ecd1e03a)"><g clip-path="url(#d70834a1ea)"><g clip-path="url(#a47ea1f0a5)"><path fill="#000000" d="M 108.132812 22.753906 L 108.257812 107.75 L 23.132812 107.75 L 23.261719 116.234375 L 108.132812 116.234375 L 108.257812 201.230469 L 116.617188 201.230469 L 116.746094 116.234375 L 201.613281 116.234375 L 201.742188 107.75 L 116.617188 107.75 L 116.746094 22.753906 Z M 108.132812 22.753906 " fill-opacity="1" fill-rule="evenodd"/></g></g></g></g></svg>