<svg xmlns="http://www.w3.org/2000/svg" xmlns:xlink="http://www.w3.org/1999/xlink" width="300" zoomAndPan="magnify" viewBox="0 0 224.87999 233.04" height="300" preserveAspectRatio="xMidYMid meet" version="1.0"><defs><clipPath id="f172f2b79f"><path d="M 22.808594 22.40625 L 202.070312 22.40625 L 202.070312 201.667969 L 22.808594 201.667969 Z M 22.808594 22.40625 " clip-rule="nonzero"/></clipPath></defs><g clip-path="url(#f172f2b79f)"><path fill="#000000" d="M 112.441406 201.667969 C 88.5 201.667969 65.992188 192.347656 49.0625 175.417969 C 32.132812 158.488281 22.808594 135.980469 22.808594 112.039062 C 22.808594 88.097656 32.132812 65.589844 49.0625 48.660156 C 65.992188 31.730469 88.5 22.40625 112.441406 22.40625 C 136.382812 22.40625 158.890625 31.730469 175.820312 48.660156 C 192.746094 65.589844 202.070312 88.097656 202.070312 112.039062 C 202.070312 135.980469 192.746094 158.488281 175.820312 175.417969 C 158.890625 192.347656 136.382812 201.667969 112.441406 201.667969 Z M 112.441406 27.96875 C 89.984375 27.96875 68.875 36.714844 52.996094 52.59375 C 37.117188 68.472656 28.371094 89.582031 28.371094 112.039062 C 28.371094 134.492188 37.117188 155.605469 52.996094 171.484375 C 68.875 187.363281 89.984375 196.105469 112.441406 196.105469 C 134.894531 196.105469 156.007812 187.363281 171.886719 171.484375 C 187.765625 155.605469 196.507812 134.492188 196.507812 112.039062 C 196.507812 89.582031 187.765625 68.472656 171.886719 52.59375 C 156.007812 36.714844 134.894531 27.96875 112.441406 27.96875 Z M 164.058594 60.421875 C 163.128906 59.492188 161.675781 59.339844 160.574219 60.054688 L 100.417969 99.199219 C 100.414062 99.199219 100.414062 99.199219 100.414062 99.203125 C 100.339844 99.25 100.265625 99.304688 100.191406 99.363281 C 100.1875 99.367188 100.183594 99.367188 100.179688 99.371094 C 100.121094 99.421875 100.0625 99.472656 100.007812 99.527344 C 99.980469 99.554688 99.957031 99.578125 99.929688 99.605469 C 99.875 99.660156 99.820312 99.71875 99.773438 99.78125 C 99.769531 99.78125 99.769531 99.785156 99.769531 99.785156 C 99.707031 99.859375 99.652344 99.9375 99.601562 100.015625 L 60.457031 160.171875 C 59.742188 161.273438 59.890625 162.726562 60.820312 163.65625 C 61.359375 164.195312 62.070312 164.472656 62.789062 164.472656 C 63.3125 164.472656 63.839844 164.324219 64.304688 164.019531 L 124.464844 124.875 C 124.625 124.773438 124.773438 124.652344 124.914062 124.511719 C 125.054688 124.371094 125.175781 124.222656 125.277344 124.0625 L 164.421875 63.902344 C 165.140625 62.800781 164.988281 61.347656 164.058594 60.421875 Z M 122.488281 118.152344 L 106.324219 101.992188 L 152.59375 71.886719 Z M 122.488281 118.152344 " fill-opacity="1" fill-rule="nonzero"/></g></svg>