<svg xmlns="http://www.w3.org/2000/svg" xmlns:xlink="http://www.w3.org/1999/xlink" width="300" zoomAndPan="magnify" viewBox="0 0 224.87999 233.04" height="300" preserveAspectRatio="xMidYMid meet" version="1.0"><defs><clipPath id="a88d7810e3"><path d="M 29.328125 22.40625 L 195.890625 22.40625 L 195.890625 201.667969 L 29.328125 201.667969 Z M 29.328125 22.40625 " clip-rule="nonzero"/></clipPath></defs><g clip-path="url(#a88d7810e3)"><path fill="#000000" d="M 193.175781 201.632812 L 138.355469 201.632812 C 136.847656 201.632812 135.625 200.414062 135.625 198.90625 L 135.625 146.234375 C 135.625 133.683594 125.277344 123.359375 112.703125 123.355469 C 100.128906 123.355469 89.777344 133.683594 89.78125 146.234375 L 89.78125 198.90625 C 89.78125 200.414062 88.554688 201.632812 87.046875 201.632812 L 32.058594 201.632812 C 30.550781 201.632812 29.328125 200.414062 29.328125 198.90625 L 29.328125 105.527344 C 29.328125 104.804688 29.617188 104.109375 30.128906 103.597656 L 110.613281 23.492188 C 111.679688 22.433594 113.40625 22.433594 114.472656 23.492188 C 141.347656 50.191406 168.226562 76.894531 195.101562 103.597656 C 195.617188 104.109375 195.90625 104.804688 195.90625 105.527344 L 195.90625 198.90625 C 195.90625 200.414062 194.683594 201.632812 193.175781 201.632812 Z M 141.089844 196.179688 L 190.441406 196.179688 L 190.441406 106.660156 C 164.476562 80.863281 138.511719 55.066406 112.546875 29.273438 L 34.792969 106.660156 L 34.792969 196.179688 L 84.316406 196.179688 L 84.316406 146.234375 C 84.316406 130.691406 97.128906 117.90625 112.703125 117.90625 C 128.277344 117.90625 141.089844 130.691406 141.089844 146.234375 Z M 141.089844 196.179688 " fill-opacity="1" fill-rule="nonzero"/></g></svg>