<svg xmlns="http://www.w3.org/2000/svg" xmlns:xlink="http://www.w3.org/1999/xlink" width="300" zoomAndPan="magnify" viewBox="0 0 224.87999 225" height="300" preserveAspectRatio="xMidYMid meet" version="1.0"><defs><clipPath id="bc47f2293b"><path d="M 57.121094 112 L 168.058594 112 L 168.058594 171 L 57.121094 171 Z M 57.121094 112 " clip-rule="nonzero"/></clipPath></defs><g clip-path="url(#bc47f2293b)"><path fill="#232524" d="M 112.5625 170.351562 C 81.984375 170.351562 57.121094 145.554688 57.121094 115.085938 C 57.121094 113.574219 58.363281 112.335938 59.878906 112.335938 C 61.398438 112.335938 62.640625 113.574219 62.640625 115.085938 C 62.640625 142.527344 85.019531 164.875 112.5625 164.875 C 140.105469 164.875 162.484375 142.554688 162.484375 115.085938 C 162.484375 113.574219 163.726562 112.335938 165.246094 112.335938 C 166.761719 112.335938 168.003906 113.574219 168.003906 115.085938 C 168.003906 145.582031 143.140625 170.378906 112.5625 170.378906 Z M 112.5625 170.351562 " fill-opacity="1" fill-rule="nonzero"/></g><path fill="#232524" d="M 112.5625 155.597656 C 90.152344 155.597656 71.910156 137.40625 71.910156 115.058594 L 71.910156 63.871094 C 71.910156 41.523438 90.152344 23.332031 112.5625 23.332031 C 134.972656 23.332031 153.214844 41.523438 153.214844 63.871094 L 153.214844 115.085938 C 153.214844 137.433594 134.972656 155.625 112.5625 155.625 Z M 112.5625 28.835938 C 93.1875 28.835938 77.429688 44.550781 77.429688 63.871094 L 77.429688 115.085938 C 77.429688 134.40625 93.1875 150.121094 112.5625 150.121094 C 131.9375 150.121094 147.695312 134.40625 147.695312 115.085938 L 147.695312 63.871094 C 147.695312 44.550781 131.9375 28.835938 112.5625 28.835938 Z M 112.5625 28.835938 " fill-opacity="1" fill-rule="nonzero"/><path fill="#232524" d="M 112.5625 201.640625 C 111.042969 201.640625 109.800781 200.402344 109.800781 198.890625 L 109.800781 167.597656 C 109.800781 166.085938 111.042969 164.847656 112.5625 164.847656 C 114.082031 164.847656 115.320312 166.085938 115.320312 167.597656 L 115.320312 198.890625 C 115.320312 200.402344 114.082031 201.640625 112.5625 201.640625 Z M 112.5625 201.640625 " fill-opacity="1" fill-rule="nonzero"/><path fill="#232524" d="M 137.898438 201.640625 L 87.226562 201.640625 C 85.710938 201.640625 84.46875 200.402344 84.46875 198.890625 C 84.46875 197.375 85.710938 196.136719 87.226562 196.136719 L 137.898438 196.136719 C 139.414062 196.136719 140.65625 197.375 140.65625 198.890625 C 140.65625 200.402344 139.414062 201.640625 137.898438 201.640625 Z M 137.898438 201.640625 " fill-opacity="1" fill-rule="nonzero"/><path fill="#232524" d="M 148.023438 74.355469 L 135.855469 74.355469 C 134.335938 74.355469 133.09375 73.117188 133.09375 71.601562 C 133.09375 70.089844 134.335938 68.851562 135.855469 68.851562 L 148.023438 68.851562 C 149.542969 68.851562 150.785156 70.089844 150.785156 71.601562 C 150.785156 73.117188 149.542969 74.355469 148.023438 74.355469 Z M 148.023438 74.355469 " fill-opacity="1" fill-rule="nonzero"/><path fill="#232524" d="M 148.023438 92.300781 L 135.855469 92.300781 C 134.335938 92.300781 133.09375 91.0625 133.09375 89.546875 C 133.09375 88.035156 134.335938 86.796875 135.855469 86.796875 L 148.023438 86.796875 C 149.542969 86.796875 150.785156 88.035156 150.785156 89.546875 C 150.785156 91.0625 149.542969 92.300781 148.023438 92.300781 Z M 148.023438 92.300781 " fill-opacity="1" fill-rule="nonzero"/><path fill="#232524" d="M 148.023438 110.269531 L 135.855469 110.269531 C 134.335938 110.269531 133.09375 109.03125 133.09375 107.519531 C 133.09375 106.003906 134.335938 104.765625 135.855469 104.765625 L 148.023438 104.765625 C 149.542969 104.765625 150.785156 106.003906 150.785156 107.519531 C 150.785156 109.03125 149.542969 110.269531 148.023438 110.269531 Z M 148.023438 110.269531 " fill-opacity="1" fill-rule="nonzero"/><path fill="#232524" d="M 105.636719 74.355469 L 76.90625 74.355469 C 75.390625 74.355469 74.148438 73.117188 74.148438 71.601562 C 74.148438 70.089844 75.390625 68.851562 76.90625 68.851562 L 105.636719 68.851562 C 107.152344 68.851562 108.394531 70.089844 108.394531 71.601562 C 108.394531 73.117188 107.152344 74.355469 105.636719 74.355469 Z M 105.636719 74.355469 " fill-opacity="1" fill-rule="nonzero"/><path fill="#232524" d="M 105.636719 92.300781 L 76.90625 92.300781 C 75.390625 92.300781 74.148438 91.0625 74.148438 89.546875 C 74.148438 88.035156 75.390625 86.796875 76.90625 86.796875 L 105.636719 86.796875 C 107.152344 86.796875 108.394531 88.035156 108.394531 89.546875 C 108.394531 91.0625 107.152344 92.300781 105.636719 92.300781 Z M 105.636719 92.300781 " fill-opacity="1" fill-rule="nonzero"/><path fill="#232524" d="M 105.636719 110.269531 L 76.90625 110.269531 C 75.390625 110.269531 74.148438 109.03125 74.148438 107.519531 C 74.148438 106.003906 75.390625 104.765625 76.90625 104.765625 L 105.636719 104.765625 C 107.152344 104.765625 108.394531 106.003906 108.394531 107.519531 C 108.394531 109.03125 107.152344 110.269531 105.636719 110.269531 Z M 105.636719 110.269531 " fill-opacity="1" fill-rule="nonzero"/></svg>